# xmcd
#
# Track frame offsets:
#	150
#	10620
#	38036
#	59541
#	74111
#	94769
#	108399
#	124826
#	150173
#	165252
#	179019
#	191326
#	208999
#	223412
#	236125
#	248777
#	264337
#	278208
#	294056
#	325152
#	336688
#
# Disc length: 4671 seconds
#
# Revision: 4
# Processed by: cddbd v1.5.2PL0 Copyright (c) Steve Scherf et al.
# Submitted via: EasyCDDAExtractor 16.0.6.1
#
DISCID=3d123d15
DTITLE=Various Artist - Funeral Songs [Dead Man Blues] - Cd 01 
DYEAR=2005
DGENRE=Blues
TTITLE0=Louis Armstrong - When The Saints Go Marching In
TTITLE1=George Lewis - Just A Closer Walk With Thee
TTITLE2=Eureka Brass Band - Sing On
TTITLE3=J.C. Higginbotham - Feelin' The Spirit
TTITLE4=Bunk Johnson - Low Down Blues
TTITLE5=Jelly Roll Morton - Oh, Didn't He Ramble
TTITLE6=Louis Armstrong - The Lonesome Road
TTITLE7=Eureka Brass Band - West Lawn Dirge
TTITLE8=Louis Armstrong - St. James Infirmary
TTITLE9=George Lewis - Precious Lord, Take My Hand
TTITLE10=King Oliver - Dead Man Blues
TTITLE11=George Lewis - Closer Walk
TTITLE12=Louis Armstrong - Nobody Knows The Trouble I've Seen
TTITLE13=Louis Armstrong - Going To Shout All Over God's Heaven
TTITLE14=King Oliver - Sweet Lovin' Man
TTITLE15=George Lewis - Gloryland
TTITLE16=Kid Ory - Blues For Jimmie
TTITLE17=Louis Armstrong - Lawd, You Made The Night Too Long
TTITLE18=George Lewis - Bourbon Street Parade
TTITLE19=Louis Armstrong - Bye And Bye
TTITLE20=Louis Armstrong - Poor Old Joe
EXTD=
EXTT0=
EXTT1=
EXTT2=
EXTT3=
EXTT4=
EXTT5=
EXTT6=
EXTT7=
EXTT8=
EXTT9=
EXTT10=
EXTT11=
EXTT12=
EXTT13=
EXTT14=
EXTT15=
EXTT16=
EXTT17=
EXTT18=
EXTT19=
EXTT20=
PLAYORDER=
